<svg width="58" height="80" viewBox="0 0 58 80" fill="none" xmlns="http://www.w3.org/2000/svg">
<path d="M13.3766 28.1239C13.3766 15.9197 22.1225 5.75978 33.6883 3.56549C32.1698 3.27737 30.6033 3.12488 29.001 3.12488C15.1945 3.12488 4.00195 14.3173 4.00195 28.1239C4.00195 41.9305 15.1945 53.1229 29.001 53.1229C30.6033 53.1229 32.1698 52.9703 33.6883 52.6823C22.1225 50.488 13.3766 40.3281 13.3766 28.1239Z" fill="#EBEBEB" fill-opacity="0.2"/>
<path d="M29.0009 56.2478C13.4933 56.2478 0.876953 43.6314 0.876953 28.1239C0.876953 12.6164 13.4933 0 29.0009 0C44.5084 0 57.1248 12.6164 57.1248 28.1239C57.1248 43.6314 44.5084 56.2478 29.0009 56.2478ZM29.0009 6.24976C16.9394 6.24976 7.12671 16.0625 7.12671 28.1239C7.12671 40.1853 16.9394 49.998 29.0009 49.998C41.0623 49.998 50.875 40.1853 50.875 28.1239C50.875 16.0625 41.0623 6.24976 29.0009 6.24976Z" fill="#B52AE5"/>
<path d="M40.1034 79.6669L29.0013 74.1159L17.8993 79.6669C15.8255 80.7038 13.377 79.1943 13.377 76.872V63.4808C13.377 61.755 14.776 60.356 16.5018 60.356C18.2277 60.356 19.6267 61.755 19.6267 63.4808V71.8158L27.6039 67.8272C28.4837 67.3874 29.5191 67.3874 30.3989 67.8272L38.3761 71.8158V63.4808C38.3761 61.755 39.7751 60.356 41.501 60.356C43.2269 60.356 44.6259 61.755 44.6259 63.4808V76.872C44.6257 79.204 42.1682 80.6994 40.1034 79.6669Z" fill="#B52AE5"/>
<path d="M34.8928 41.0021L29 37.904L23.1071 41.0021C20.8187 42.2051 18.1358 40.257 18.573 37.708L19.6984 31.1463L14.931 26.4991C13.0798 24.6946 14.1035 21.5409 16.6628 21.169L23.2513 20.2117L26.1977 14.2416C27.3419 11.9234 30.6575 11.9225 31.802 14.2416L34.7485 20.2117L41.337 21.169C43.8951 21.5407 44.921 24.6939 43.0688 26.4991L38.3011 31.1463L39.4266 37.708C39.8655 40.2653 37.1698 42.1991 34.8928 41.0021ZM23.8275 26.4433L25.2373 27.8175C25.9737 28.5354 26.3097 29.5698 26.1358 30.5835L25.803 32.5239L27.5458 31.6077C28.4561 31.1291 29.5438 31.1291 30.4541 31.6077L32.1967 32.5239L31.8639 30.5835C31.6902 29.5698 32.0262 28.5354 32.7626 27.8175L34.1724 26.4432L32.224 26.1601C31.2063 26.0121 30.3263 25.3729 29.8712 24.4506L28.9998 22.685L28.1284 24.4506C27.6733 25.3729 26.7935 26.0121 25.7755 26.1601L23.8275 26.4433Z" fill="#F2D12C"/>
</svg>
