<svg width="40" height="40" viewBox="0 0 40 40" fill="none" xmlns="http://www.w3.org/2000/svg">
<path d="M11.6667 28.6666H7.47853C4.26894 28.6666 1.66669 25.6817 1.66669 21.9983C1.66669 18.3816 3.89698 15.4367 7.01721 15.3333H8.6409C8.6409 15.8885 8.42513 16.3127 8.05535 16.6703C6.79273 17.8915 6.02557 19.8811 6.02557 22.0016C6.02557 25.6192 8.53556 28.5633 11.6667 28.6666Z" fill="#EBEBEB" fill-opacity="0.2"/>
<path d="M26.25 28.2611H32.1875C35.6392 28.2611 38.4375 25.4628 38.4375 22.0111C38.4375 18.5592 35.9517 15.7611 32.5 15.7611C32.5 12.3092 29.7017 9.51111 26.25 9.51111C25.5058 9.51111 24.8017 9.6633 24.1397 9.90212C22.4209 7.77431 19.8232 6.38611 16.875 6.38611C11.6973 6.38611 7.5 10.5835 7.5 15.7611C4.04828 15.7611 1.5625 18.5592 1.5625 22.0111C1.5625 25.4628 4.36078 28.2611 7.8125 28.2611H13.75" stroke="#B52AE5" stroke-width="3" stroke-miterlimit="10" stroke-linecap="round" stroke-linejoin="round"/>
<path d="M26.25 28.2611H32.1875C35.6392 28.2611 38.4375 25.4628 38.4375 22.0111C38.4375 18.5592 35.9517 15.7611 32.5 15.7611C32.5 12.3092 29.7017 9.51111 26.25 9.51111C25.5058 9.51111 24.8017 9.6633 24.1397 9.90212C22.4209 7.77431 19.8232 6.38611 16.875 6.38611C11.6973 6.38611 7.5 10.5835 7.5 15.7611C4.04828 15.7611 1.5625 18.5592 1.5625 22.0111C1.5625 25.4628 4.36078 28.2611 7.8125 28.2611H13.75" stroke="#B52AE5" stroke-width="3" stroke-miterlimit="10" stroke-linecap="round" stroke-linejoin="round"/>
<path d="M20 18.8861V37.6135" stroke="#F2D12C" stroke-width="3" stroke-miterlimit="10" stroke-linecap="round" stroke-linejoin="round"/>
<path d="M15.3125 33.5736L18.8952 37.1563C19.5053 37.7664 20.4947 37.7664 21.1048 37.1563L24.6875 33.5736" stroke="#F2D12C" stroke-width="3" stroke-miterlimit="10" stroke-linecap="round" stroke-linejoin="round"/>
</svg>
