<svg width="40" height="40" viewBox="0 0 40 40" fill="none" xmlns="http://www.w3.org/2000/svg">
<g clip-path="url(#clip0_111_8723)">
<path d="M32.5 25.9375V35.3125C32.5 37.0312 31.0938 38.4375 29.375 38.4375H10.625C8.90625 38.4375 7.5 37.0312 7.5 35.3125V19.6875" stroke="#B52AE5" stroke-width="3" stroke-miterlimit="10" stroke-linecap="round" stroke-linejoin="round"/>
<path d="M13.75 29.0625H20" stroke="#B52AE5" stroke-width="3" stroke-miterlimit="10" stroke-linecap="round" stroke-linejoin="round"/>
<path d="M16.875 25.9375V32.1875" stroke="#B52AE5" stroke-width="3" stroke-miterlimit="10" stroke-linecap="round" stroke-linejoin="round"/>
<path d="M15.3125 1.5625H10.625C8.90625 1.5625 7.5 2.96875 7.5 4.6875V19.6875H12.1875V4.6875C12.1875 2.96875 13.5938 1.5625 15.3125 1.5625Z" fill="#EBEBEB" fill-opacity="0.2"/>
<path d="M32.5 4.6875V19.6875H7.5V4.6875C7.5 2.96875 8.90625 1.5625 10.625 1.5625H29.375C31.0938 1.5625 32.5 2.96875 32.5 4.6875Z" stroke="#B52AE5" stroke-width="3" stroke-miterlimit="10" stroke-linecap="round" stroke-linejoin="round"/>
<path d="M16.875 13.4375H23.125" stroke="#F2D12C" stroke-width="3" stroke-miterlimit="10" stroke-linecap="round" stroke-linejoin="round"/>
<path d="M20 10.3125V13.4375" stroke="#F2D12C" stroke-width="3" stroke-miterlimit="10" stroke-linecap="round" stroke-linejoin="round"/>
<rect x="25" y="24.5" width="3" height="3" rx="1.5" fill="#F2D12C"/>
<rect x="25" y="30.5" width="3" height="3" rx="1.5" fill="#F2D12C"/>
</g>
<defs>
<clipPath id="clip0_111_8723">
<rect width="40" height="40" fill="white"/>
</clipPath>
</defs>
</svg>
