<svg width="197" height="40" viewBox="0 0 197 40" fill="none" xmlns="http://www.w3.org/2000/svg">
<path d="M28.0918 14.0741L28.1162 23.7783L28.1365 23.8048L28.1196 25.8711C28.1179 27.2976 27.3484 28.5966 26.1405 29.266C16.1114 34.2681 16.2725 34.7118 14.5607 34.7441C12.9185 34.7202 13.0954 34.3067 2.97377 29.3314C1.83465 28.7163 1.0098 27.5415 0.960503 25.9219L0.952733 14.1516C0.91839 12.8217 1.60663 11.485 2.93189 10.7567L12.7422 5.70601C13.8438 5.11719 15.1501 5.12671 16.2613 5.70462L26.0721 10.7114C27.3402 11.3324 28.1392 12.8096 28.0918 14.0741Z" fill="#9EA9C9"/>
<path d="M26.0172 12.806L14.5298 18.7283L3.01537 12.8592C2.18153 12.4342 2.10043 11.2109 2.9232 10.7648C2.92915 10.7616 2.93512 10.7584 2.94109 10.7552L12.7386 5.70247C13.843 5.13288 15.1542 5.12985 16.2612 5.69433C29.4786 12.4336 25.2416 10.2738 26.0998 10.7113C26.9246 11.1536 26.8491 12.3771 26.0172 12.806Z" fill="#F1F6FA"/>
<path d="M13.1163 17.1419C3.33781 12.0138 3.12515 12.3407 3.11791 11.7609C3.11626 11.6596 3.14516 11.5219 3.29058 11.4434L13.0916 6.38884C13.975 5.93258 15.0252 5.93085 15.9093 6.38233L25.7302 11.3896C26.0067 11.5371 25.9455 11.974 25.6626 12.1196L15.934 17.1354C15.0862 17.5724 14.0381 17.6111 13.1163 17.1419Z" fill="#DD52FF"/>
<path d="M25.6598 12.1198L15.9356 17.1345C15.0663 17.5809 14.026 17.6025 13.1171 17.141C3.33986 12.0106 3.12163 12.3373 3.1203 11.7575C3.12007 11.6561 3.14741 11.5179 3.29459 11.4439L4.31575 10.9165C10.1576 15.5934 19.4049 14.6948 21.4161 9.19144L25.7318 11.392C25.9972 11.5239 25.9552 11.9712 25.6598 12.1198Z" fill="#A116D1"/>
<path d="M28.1332 25.8768C28.1364 27.2954 27.3578 28.5902 26.1241 29.2686C25.9876 29.339 16.4713 34.2469 16.3147 34.3276C15.517 34.7444 14.5648 34.0957 14.5627 33.1956L14.5295 18.7286L26.2724 12.6746C27.0172 12.2906 27.9541 12.733 28.0695 13.5629C28.1345 14.0295 28.0925 13.4881 28.1332 25.8768Z" fill="#E3E7F0"/>
<path d="M27.334 13.7967L27.3618 25.9049C27.3645 27.0688 26.7233 28.1234 25.6888 28.6568C15.4761 33.9009 16.0411 33.6836 15.8213 33.6841C15.6239 33.6846 15.3965 33.5574 15.3634 33.3214C15.3184 32.9997 15.3362 30.5566 15.3071 21.112C15.3045 19.9854 15.9213 18.9455 16.9161 18.3989L26.6913 13.3576C27.0079 13.1912 27.3333 13.4852 27.334 13.7967Z" fill="#B52AE5"/>
<path d="M15.3634 33.3215C15.3965 33.5574 15.6239 33.6846 15.8213 33.6841C16.025 33.6837 15.9279 33.6691 18.208 32.5134C16.0892 26.0243 19.1306 17.6291 27.3406 16.6423L27.334 13.7967C27.3333 13.489 27.0117 13.1894 26.6912 13.3577L16.9161 18.3989C15.9213 18.9455 15.3045 19.9854 15.3071 21.112L15.3342 32.9045C15.3345 33.0449 15.3442 33.1844 15.3634 33.3215Z" fill="#8300B3"/>
<path d="M0.958313 25.9395C0.961571 27.358 1.74619 28.6493 2.98297 29.322C3.11973 29.3917 12.6585 34.2555 12.8154 34.3355C13.6151 34.7487 14.5644 34.0955 14.5623 33.1954L14.5291 18.7284L2.75843 12.7288C2.01189 12.3483 1.07706 12.795 0.9654 13.6254C0.902622 14.0923 0.942063 13.5507 0.958313 25.9395Z" fill="#E3E7F0"/>
<path d="M13.7905 33.1976L13.7627 21.0894C13.7601 19.9255 13.114 18.8739 12.0771 18.3453L2.40769 13.4168C2.11948 13.2706 1.76902 13.4428 1.73035 13.7284C1.68685 14.0504 1.71581 16.4934 1.73012 25.938C1.73271 27.0646 2.35424 28.1017 3.35159 28.6436L13.1498 33.6396C13.4672 33.8046 13.7913 33.5091 13.7905 33.1976Z" fill="#B52AE5"/>
<path d="M1.73039 13.7285C1.76927 13.4411 2.12164 13.2716 2.40772 13.4168L4.5787 14.5234C2.48967 21.0222 5.56959 29.4032 13.784 30.352L13.7905 33.1976C13.7913 33.5054 13.471 33.8065 13.1498 33.6396L3.35163 28.6436C2.35426 28.1017 1.73275 27.0646 1.73016 25.938C1.71584 16.5127 1.68688 14.0498 1.73039 13.7285Z" fill="#8300B3"/>
<path d="M11.1031 27.1703C10.3222 26.702 9.56606 27.155 9.46688 28.2195C9.36769 29.284 9.96382 30.5479 10.7448 31.0162C11.5779 31.5157 12.3346 31.0631 12.4338 29.9986C12.533 28.9341 11.9362 27.6699 11.1031 27.1703Z" fill="white"/>
<path d="M11.0717 27.7706C10.6211 27.5005 10.1849 27.7618 10.1277 28.3759C10.0705 28.99 10.4144 29.7192 10.8649 29.9893C11.3455 30.2775 11.7821 30.0164 11.8393 29.4023C11.8965 28.7882 11.5523 28.0588 11.0717 27.7706Z" fill="#CCCCCC"/>
<path d="M5.0963 23.5692C4.31533 23.1009 3.55922 23.5539 3.46004 24.6184C3.36085 25.6829 3.95699 26.9468 4.73795 27.4151C5.57103 27.9146 6.32777 27.462 6.42696 26.3975C6.52614 25.333 5.92938 24.0688 5.0963 23.5692Z" fill="white"/>
<path d="M5.0636 24.1686C4.61306 23.8984 4.17685 24.1598 4.11964 24.7739C4.06242 25.388 4.40633 26.1171 4.85687 26.3873C5.33747 26.6755 5.77404 26.4143 5.83126 25.8002C5.88848 25.1861 5.5442 24.4568 5.0636 24.1686Z" fill="#CCCCCC"/>
<path d="M11.2662 20.3517C10.4853 19.8834 9.72915 20.3364 9.62996 21.4009C9.53078 22.4654 10.1269 23.7293 10.9079 24.1976C11.741 24.6971 12.4977 24.2445 12.5969 23.18C12.6961 22.1155 12.0993 20.8513 11.2662 20.3517Z" fill="white"/>
<path d="M11.2347 20.9513C10.7842 20.6811 10.348 20.9425 10.2908 21.5566C10.2336 22.1707 10.5775 22.8998 11.028 23.17C11.5086 23.4582 11.9452 23.197 12.0024 22.5829C12.0596 21.9689 11.7153 21.2395 11.2347 20.9513Z" fill="#CCCCCC"/>
<path d="M5.26085 16.7504C4.47988 16.2821 3.72377 16.7351 3.62459 17.7996C3.52541 18.864 4.12154 20.1279 4.90251 20.5962C5.73558 21.0958 6.49232 20.6432 6.59151 19.5787C6.69069 18.5142 6.09393 17.2499 5.26085 16.7504Z" fill="white"/>
<path d="M5.22913 17.35C4.77858 17.0798 4.34238 17.3412 4.28516 17.9553C4.22794 18.5694 4.57185 19.2985 5.0224 19.5687C5.503 19.8569 5.93957 19.5957 5.99679 18.9816C6.05401 18.3675 5.70973 17.6382 5.22913 17.35Z" fill="#CCCCCC"/>
<path d="M22.5486 19.1735C22.5507 20.0841 23.329 20.4978 24.2919 20.0332C25.2548 19.5686 26.0295 18.4056 26.0274 17.495C26.0251 16.5236 25.2468 16.1092 24.284 16.5738C23.3211 17.0383 22.5464 18.2021 22.5486 19.1735Z" fill="white"/>
<path d="M23.0794 18.891C23.0806 19.4163 23.5296 19.655 24.0851 19.387C24.6405 19.1189 25.0875 18.448 25.0863 17.9227C25.085 17.3623 24.636 17.1232 24.0805 17.3912C23.525 17.6592 23.0781 18.3306 23.0794 18.891Z" fill="#CCCCCC"/>
<path d="M22.565 26.1762C22.5671 27.0868 23.3454 27.5005 24.3083 27.0359C25.2711 26.5713 26.0458 25.4083 26.0437 24.4977C26.0415 23.5263 25.2632 23.1119 24.3003 23.5764C23.3374 24.041 22.5628 25.2048 22.565 26.1762Z" fill="white"/>
<path d="M23.0945 25.8942C23.0957 26.4195 23.5447 26.6582 24.1002 26.3901C24.6557 26.1221 25.1026 25.4512 25.1014 24.9258C25.1001 24.3654 24.6511 24.1264 24.0956 24.3944C23.5401 24.6624 23.0932 25.3338 23.0945 25.8942Z" fill="#CCCCCC"/>
<path d="M16.6236 22.5531C16.6257 23.4637 17.404 23.8774 18.3669 23.4128C19.3297 22.9483 20.1044 21.7852 20.1023 20.8746C20.1001 19.9033 19.3218 19.4888 18.3589 19.9534C17.396 20.418 16.6213 21.5817 16.6236 22.5531Z" fill="white"/>
<path d="M17.1533 22.2709C17.1545 22.7962 17.6036 23.0349 18.159 22.7668C18.7145 22.4988 19.1614 21.8279 19.1602 21.3025C19.1589 20.7422 18.7099 20.5031 18.1545 20.7711C17.599 21.0391 17.1521 21.7105 17.1533 22.2709Z" fill="#CCCCCC"/>
<path d="M16.6399 29.5553C16.642 30.4659 17.4203 30.8796 18.3832 30.415C19.3461 29.9505 20.1208 28.7874 20.1187 27.8768C20.1165 26.9055 19.3381 26.491 18.3753 26.9556C17.4124 27.4202 16.6377 28.5839 16.6399 29.5553Z" fill="white"/>
<path d="M17.1692 29.2733C17.1704 29.7986 17.6194 30.0373 18.1749 29.7693C18.7304 29.5013 19.1773 28.8303 19.1761 28.305C19.1748 27.7446 18.7258 27.5055 18.1703 27.7735C17.6148 28.0415 17.1679 28.7129 17.1692 29.2733Z" fill="#CCCCCC"/>
<path d="M23.328 14.177L15.6893 18.3988C15.1464 18.6988 14.8029 19.2638 14.7862 19.8838L14.553 28.5386L14.28 19.885C14.2605 19.265 13.9143 18.7017 13.37 18.4041L5.7122 14.2177L13.7705 18.069C14.2504 18.2984 14.8086 18.2971 15.2875 18.0655L23.328 14.177Z" fill="white"/>
<path d="M11.6612 11.7859C11.6626 12.4212 10.6054 12.9735 9.29296 12.9766C7.98047 12.9796 6.92075 12.4321 6.91929 11.7969C6.91773 11.1193 7.97493 10.5664 9.28741 10.5634C10.5999 10.5604 11.6596 11.1084 11.6612 11.7859Z" fill="white"/>
<path d="M10.8851 12.1889C10.886 12.6086 10.1749 12.9736 9.29216 12.9757C8.40939 12.9777 7.69663 12.616 7.69567 12.1963C7.69464 11.7486 8.40573 11.3832 9.2885 11.3812C10.1713 11.3791 10.884 11.7412 10.8851 12.1889Z" fill="#CCCCCC"/>
<path d="M22.1097 11.7691C22.1111 12.4043 21.0539 12.9567 19.7414 12.9597C18.429 12.9628 17.3692 12.4153 17.3678 11.7801C17.3662 11.1025 18.4234 10.5496 19.7359 10.5465C21.0484 10.5435 22.1081 11.0915 22.1097 11.7691Z" fill="white"/>
<path d="M21.334 12.1718C21.335 12.5915 20.6239 12.9565 19.7411 12.9586C18.8584 12.9606 18.1456 12.5989 18.1446 12.1792C18.1436 11.7315 18.8547 11.3661 19.7375 11.3641C20.6202 11.362 21.333 11.7241 21.334 12.1718Z" fill="#CCCCCC"/>
<path d="M17.0999 14.5363C17.1014 15.1857 16.0206 15.7504 14.6788 15.7535C13.337 15.7566 12.2536 15.1969 12.2521 14.5475C12.2505 13.8548 13.3313 13.2896 14.6731 13.2865C16.0149 13.2834 17.0983 13.8436 17.0999 14.5363Z" fill="white"/>
<path d="M16.2718 14.9382C16.2727 15.3579 15.5617 15.7229 14.6789 15.7249C13.7961 15.727 13.0834 15.3652 13.0824 14.9455C13.0814 14.4978 13.7924 14.1325 14.6752 14.1304C15.558 14.1284 16.2707 14.4905 16.2718 14.9382Z" fill="#CCCCCC"/>
<path d="M16.9776 8.59489C16.979 9.21089 15.9538 9.74657 14.6811 9.74951C13.4084 9.75245 12.3808 9.22152 12.3794 8.60552C12.3779 7.94842 13.403 7.41225 14.6757 7.4093C15.9484 7.40636 16.9761 7.93779 16.9776 8.59489Z" fill="white"/>
<path d="M16.1922 8.9761C16.1931 9.37425 15.5186 9.7205 14.6813 9.72243C13.844 9.72437 13.168 9.38124 13.167 8.9831C13.1661 8.55839 13.8405 8.21182 14.6779 8.20988C15.5152 8.20794 16.1912 8.5514 16.1922 8.9761Z" fill="#CCCCCC"/>
<path d="M46.6974 29.5014C45.4476 29.5014 44.2719 29.2578 43.1703 28.7705C42.09 28.2621 41.1367 27.5843 40.3106 26.7369C39.5056 25.8896 38.8701 24.9258 38.4041 23.8454C37.9381 22.7439 37.705 21.5894 37.705 20.3819C37.705 19.1533 37.9381 18.0094 38.4041 16.9502C38.8701 15.8699 39.5162 14.9272 40.3424 14.1222C41.1897 13.2961 42.1747 12.65 43.2974 12.184C44.4202 11.7179 45.6382 11.4849 46.9516 11.4849C48.731 11.4849 50.2562 11.845 51.5272 12.5653C52.7982 13.2643 53.7514 14.1964 54.3869 15.3615L51.4636 17.5222C51.04 16.6748 50.4045 16.0287 49.5571 15.5839C48.7098 15.139 47.7989 14.9166 46.8245 14.9166C46.0407 14.9166 45.3205 15.0649 44.6638 15.3615C44.0283 15.658 43.4775 16.0605 43.0115 16.5689C42.5666 17.0773 42.2171 17.6705 41.9629 18.3483C41.7087 19.0262 41.5816 19.7464 41.5816 20.509C41.5816 21.2928 41.7193 22.0236 41.9947 22.7015C42.27 23.3794 42.6514 23.9725 43.1386 24.4809C43.6258 24.9893 44.1977 25.3812 44.8544 25.6566C45.5323 25.932 46.2631 26.0697 47.0469 26.0697C47.9578 26.0697 48.8369 25.8472 49.6842 25.4024C50.5527 24.9575 51.3683 24.322 52.1309 23.4959V27.2771C51.3259 28.0397 50.4786 28.6011 49.5889 28.9612C48.7204 29.3213 47.7565 29.5014 46.6974 29.5014ZM51.8449 22.9557H47.9048V20.1595H55.0224V29.3743H51.8449V22.9557ZM56.4878 29.3743L64.2409 11.612H67.3867L75.108 29.3743H71.0408L69.2614 25.2117H62.3662L60.5868 29.3743H56.4878ZM65.8297 16.2829L63.2241 21.8754H68.3399L65.8297 16.2829ZM93.4668 29.3743V18.2848L88.3828 26.4192H86.2856L81.2334 18.2848V29.3743H77.3886V11.612H81.5511L87.366 21.2081L93.1808 11.612H97.2798V29.3743H93.4668ZM115.318 26.0061V29.3743H101.623V11.612H115.064V14.9802H105.468V18.7614H113.761V21.9071H105.468V26.0061H115.318Z" fill="#F2D12C"/>
<path d="M127.586 25.7002H120.688L121.345 22.7659L131.629 12.1628H133.928L131.629 22.7412H133.751L133.094 25.7002H130.972L130.188 29.3743H126.803L127.586 25.7002ZM128.622 22.7412L129.835 17.1685L124.731 22.7412H128.622Z" fill="white"/>
<path d="M140.088 29.3743V11.612H153.339V14.9802H143.933V19.1109H151.782V22.2567H143.933V29.3743H140.088ZM164.484 26.1014C165.374 26.1014 166.115 25.9532 166.708 25.6566C167.323 25.3388 167.799 24.9258 168.138 24.4174C168.498 23.909 168.753 23.337 168.901 22.7015C169.07 22.0448 169.155 21.3775 169.155 20.6997V11.612H173V20.6997C173 21.9071 172.83 23.051 172.492 24.1314C172.174 25.1906 171.665 26.1226 170.966 26.9276C170.288 27.7326 169.409 28.3681 168.329 28.8341C167.27 29.2789 165.999 29.5014 164.516 29.5014C162.97 29.5014 161.656 29.2684 160.576 28.8023C159.517 28.3151 158.648 27.6584 157.97 26.8323C157.292 26.0061 156.795 25.0635 156.477 24.0043C156.18 22.9451 156.032 21.8436 156.032 20.6997V11.612H159.877V20.6997C159.877 21.3987 159.951 22.0766 160.099 22.7333C160.269 23.3688 160.534 23.9407 160.894 24.4491C161.254 24.9575 161.72 25.36 162.292 25.6566C162.885 25.9532 163.616 26.1014 164.484 26.1014ZM180.921 18.7296V29.3743H177.077V11.612H180.063L190.295 22.5426V11.612H194.14V29.3743H191.026L180.921 18.7296Z" fill="#F2D12C"/>
</svg>
