<svg width="80" height="80" viewBox="0 0 80 80" fill="none" xmlns="http://www.w3.org/2000/svg">
<path d="M11.9516 64.0519C13.5893 61.3539 16.2796 59.6843 19.3327 59.471C23.2873 59.1945 26.622 57.804 28.9765 55.4496L44.8874 39.5328C48.4354 35.9848 49.9194 30.8022 48.9592 25.3134C48.2568 21.2993 49.5549 17.1853 52.4318 14.3086C52.829 13.9112 53.2501 13.5488 53.6877 13.2152C53.972 12.8246 54.2894 12.4508 54.6414 12.0986L60.0867 6.65329C59.0319 6.37294 57.9494 6.23401 56.8697 6.23401C53.6357 6.23401 50.4215 7.47856 48.0116 9.88844C45.1348 12.7651 43.8366 16.8791 44.5391 20.8933C45.4992 26.382 44.0152 31.5646 40.4672 35.1127L24.5565 51.0295C22.202 53.3839 18.8673 54.7744 14.9127 55.0508C11.8596 55.2641 9.16934 56.9339 7.5316 59.6318C5.749 62.5686 5.82058 66.4846 7.70991 69.3763C8.73802 70.9498 10.0843 72.0885 11.5747 72.8088C10.2487 70.0559 10.3648 66.6662 11.9516 64.0519Z" fill="#EBEBEB" fill-opacity="0.2"/>
<path d="M15.6352 67.4973C17.3613 67.4973 18.7607 66.098 18.7607 64.3718C18.7607 62.6457 17.3613 61.2464 15.6352 61.2464C13.9091 61.2464 12.5098 62.6457 12.5098 64.3718C12.5098 66.098 13.9091 67.4973 15.6352 67.4973Z" fill="#F2D12C"/>
<path d="M26.6845 75.422C29.4864 72.6199 31.094 68.8848 31.2111 64.905C31.2668 63.0117 32.2464 61.02 33.9693 59.2971L49.2958 43.9642C51.3836 41.8763 54.5619 41.0255 58.0177 41.6299C64.0559 42.6864 70.2202 40.72 74.52 36.4202C80.8005 30.1399 81.8028 20.2132 76.903 12.8167C76.385 12.0348 75.5432 11.5268 74.6099 11.433C73.6759 11.3394 72.7506 11.6696 72.0872 12.3329L63.47 20.95C62.2511 22.1686 60.2685 22.1688 59.0499 20.95C57.8313 19.7314 57.8313 17.7486 59.0499 16.53L67.6672 7.9127C68.3303 7.24948 68.6606 6.32341 68.5668 5.39015C68.4731 4.45689 67.965 3.61506 67.1832 3.09701C59.7865 -1.80275 49.8603 -0.80073 43.5798 5.47985C39.2645 9.79484 37.3171 15.964 38.37 21.9822C38.9745 25.4371 38.1236 28.6161 36.0356 30.7041L20.1248 46.6209C18.8334 47.9123 16.9292 48.6544 14.4652 48.8267C9.36044 49.1833 4.88136 51.9435 2.17645 56.3998C-0.828355 61.3498 -0.712245 67.9433 2.46524 72.8068C8.03041 81.325 19.725 82.3811 26.6845 75.422ZM7.51987 59.6434C9.1576 56.9453 11.8478 55.2757 14.9009 55.0624C18.8555 54.7859 22.1904 53.3954 24.5448 51.041L40.4557 35.1241C44.0037 31.5761 45.4876 26.3935 44.5275 20.9047C43.8252 16.8904 45.1232 12.7765 48 9.89986C50.4099 7.48998 53.6239 6.24543 56.8581 6.24543C57.9378 6.24543 59.0203 6.38436 60.0752 6.66471L54.6299 12.1099C50.9742 15.7657 50.9742 21.714 54.63 25.37C58.286 29.026 64.2348 29.0257 67.8902 25.37L73.3355 19.9249C74.4558 24.1397 73.3146 28.7858 70.1002 32.0002C67.2237 34.8767 63.1101 36.1747 59.0952 35.4726C53.6061 34.5121 48.4238 35.9964 44.876 39.5444L29.5496 54.8772C26.6948 57.732 25.0661 61.228 24.9633 64.7214C24.8933 67.1013 23.9349 69.3319 22.2646 71.0022C18.175 75.0917 11.1494 74.6702 7.69849 69.388C5.80884 66.496 5.73711 62.58 7.51987 59.6434Z" fill="#B52AE5"/>
</svg>
